<svg width="433" height="99" viewBox="0 0 433 99" fill="none" xmlns="http://www.w3.org/2000/svg">
<path d="M72.0336 12.7V9.49H72.7536C72.9336 9.49 73.1536 9.49 73.4136 9.49C73.6736 9.49 73.9336 9.49 74.1936 9.49C74.4736 9.47 74.7436 9.45 75.0036 9.43C75.2636 9.39 75.4736 9.35 75.6336 9.31C76.3336 9.15 76.9336 8.87 77.4336 8.47C77.9336 8.05 78.1836 7.49 78.1836 6.79C78.1836 5.83 77.8736 5.18 77.2536 4.84C76.6536 4.48 75.8536 4.3 74.8536 4.3C73.9536 4.3 73.1136 4.42 72.3336 4.66C71.5536 4.9 70.9636 5.13 70.5636 5.35L69.5136 1.87C69.7336 1.75 70.0436 1.62 70.4436 1.48C70.8636 1.34 71.3336 1.21 71.8536 1.09C72.3936 0.949999 72.9736 0.839999 73.5936 0.76C74.2136 0.68 74.8436 0.64 75.4836 0.64C76.3636 0.64 77.2236 0.719999 78.0636 0.879998C78.9036 1.04 79.6536 1.32 80.3136 1.72C80.9736 2.12 81.5036 2.66 81.9036 3.34C82.3036 4 82.5036 4.85 82.5036 5.89C82.5036 6.93 82.2236 7.89 81.6636 8.77C81.1236 9.65 80.2436 10.29 79.0236 10.69V10.84C80.3236 11.1 81.3336 11.66 82.0536 12.52C82.7936 13.38 83.1636 14.53 83.1636 15.97C83.1636 17.11 82.9336 18.09 82.4736 18.91C82.0136 19.71 81.4036 20.37 80.6436 20.89C79.9036 21.41 79.0436 21.79 78.0636 22.03C77.0836 22.29 76.0836 22.42 75.0636 22.42C73.7436 22.42 72.5436 22.31 71.4636 22.09C70.3836 21.87 69.5536 21.61 68.9736 21.31L70.0236 17.74C70.4836 17.96 71.1436 18.19 72.0036 18.43C72.8636 18.65 73.8836 18.76 75.0636 18.76C75.5036 18.76 75.9436 18.71 76.3836 18.61C76.8436 18.49 77.2536 18.31 77.6136 18.07C77.9736 17.81 78.2636 17.48 78.4836 17.08C78.7036 16.68 78.8136 16.2 78.8136 15.64C78.8136 14.7 78.4636 13.99 77.7636 13.51C77.0636 13.03 75.8136 12.77 74.0136 12.73C73.7736 12.71 73.5936 12.7 73.4736 12.7C73.3536 12.7 73.1436 12.7 72.8436 12.7H72.0336ZM96.3746 17.35H89.9246L88.3346 22H84.2246L91.7846 0.849999H94.8146L102.375 22H98.0546L96.3746 17.35ZM90.9746 14.05H95.4746L93.9146 9.37L93.2846 6.07H93.1346L92.5046 9.4L90.9746 14.05ZM116.429 10.36L116.669 7.63H116.519L115.109 10.45L107.279 22H104.189V0.999999H108.299V12.43L107.999 15.25H108.179L109.649 12.34L117.479 0.999999H120.539V22H116.429V10.36ZM135.959 13.21H128.279V22H124.169V0.999999H128.279V9.55H135.959V0.999999H140.069V22H135.959V13.21ZM158.62 4.66H152.5V22H148.39V4.66H142.24V0.999999H158.62V4.66ZM160.761 0.999999H173.211V4.66H164.871V9.55H172.461V13.21H164.871V18.34H173.361V22H160.761V0.999999ZM176.435 1.21C177.275 1.05 178.195 0.929999 179.195 0.849999C180.215 0.749999 181.225 0.699999 182.225 0.699999C183.265 0.699999 184.305 0.789999 185.345 0.969999C186.405 1.13 187.355 1.47 188.195 1.99C189.035 2.49 189.715 3.2 190.235 4.12C190.775 5.02 191.045 6.2 191.045 7.66C191.045 8.98 190.815 10.1 190.355 11.02C189.895 11.92 189.285 12.66 188.525 13.24C187.765 13.82 186.895 14.24 185.915 14.5C184.955 14.76 183.955 14.89 182.915 14.89C182.815 14.89 182.655 14.89 182.435 14.89C182.215 14.89 181.985 14.89 181.745 14.89C181.505 14.87 181.265 14.85 181.025 14.83C180.805 14.81 180.645 14.79 180.545 14.77V22H176.435V1.21ZM182.555 4.24C182.155 4.24 181.775 4.26 181.415 4.3C181.055 4.32 180.765 4.35 180.545 4.39V11.2C180.625 11.22 180.745 11.24 180.905 11.26C181.065 11.28 181.235 11.3 181.415 11.32C181.595 11.32 181.765 11.32 181.925 11.32C182.105 11.32 182.235 11.32 182.315 11.32C182.855 11.32 183.385 11.27 183.905 11.17C184.445 11.07 184.925 10.89 185.345 10.63C185.765 10.35 186.095 9.97 186.335 9.49C186.595 9.01 186.725 8.38 186.725 7.6C186.725 6.94 186.605 6.4 186.365 5.98C186.125 5.54 185.805 5.19 185.405 4.93C185.025 4.67 184.585 4.49 184.085 4.39C183.585 4.29 183.075 4.24 182.555 4.24ZM193.603 0.999999H206.053V4.66H197.713V9.55H205.303V13.21H197.713V18.34H206.203V22H193.603V0.999999ZM223.497 21.13C222.857 21.59 222.037 21.92 221.037 22.12C220.057 22.32 219.047 22.42 218.007 22.42C216.747 22.42 215.547 22.23 214.407 21.85C213.287 21.45 212.297 20.82 211.437 19.96C210.577 19.08 209.887 17.95 209.367 16.57C208.867 15.17 208.617 13.48 208.617 11.5C208.617 9.44 208.897 7.72 209.457 6.34C210.037 4.94 210.777 3.82 211.677 2.98C212.597 2.12 213.617 1.51 214.737 1.15C215.857 0.769999 216.977 0.579999 218.097 0.579999C219.297 0.579999 220.307 0.659999 221.127 0.819999C221.967 0.979999 222.657 1.17 223.197 1.39L222.387 4.87C221.927 4.65 221.377 4.49 220.737 4.39C220.117 4.29 219.357 4.24 218.457 4.24C216.797 4.24 215.457 4.83 214.437 6.01C213.437 7.19 212.937 9.02 212.937 11.5C212.937 12.58 213.057 13.57 213.297 14.47C213.537 15.35 213.897 16.11 214.377 16.75C214.877 17.37 215.487 17.86 216.207 18.22C216.947 18.56 217.797 18.73 218.757 18.73C219.657 18.73 220.417 18.64 221.037 18.46C221.657 18.28 222.197 18.05 222.657 17.77L223.497 21.13ZM224.378 11.5C224.378 8 225.148 5.31 226.688 3.43C228.228 1.53 230.428 0.579999 233.288 0.579999C234.788 0.579999 236.098 0.839999 237.218 1.36C238.338 1.88 239.268 2.62 240.008 3.58C240.748 4.54 241.298 5.69 241.658 7.03C242.018 8.37 242.198 9.86 242.198 11.5C242.198 15 241.418 17.7 239.858 19.6C238.318 21.48 236.128 22.42 233.288 22.42C231.768 22.42 230.448 22.16 229.328 21.64C228.208 21.12 227.278 20.38 226.538 19.42C225.818 18.46 225.278 17.31 224.918 15.97C224.558 14.63 224.378 13.14 224.378 11.5ZM228.698 11.5C228.698 12.56 228.788 13.54 228.968 14.44C229.148 15.32 229.418 16.08 229.778 16.72C230.158 17.36 230.638 17.86 231.218 18.22C231.798 18.58 232.488 18.76 233.288 18.76C234.748 18.76 235.878 18.19 236.678 17.05C237.478 15.91 237.878 14.06 237.878 11.5C237.878 10.48 237.788 9.53 237.608 8.65C237.448 7.77 237.188 7 236.828 6.34C236.468 5.68 235.998 5.17 235.418 4.81C234.838 4.43 234.128 4.24 233.288 4.24C231.828 4.24 230.698 4.83 229.898 6.01C229.098 7.17 228.698 9 228.698 11.5ZM259.266 5.89C259.266 6.41 259.196 6.93 259.056 7.45C258.936 7.97 258.726 8.45 258.426 8.89C258.126 9.31 257.736 9.69 257.256 10.03C256.776 10.35 256.196 10.59 255.516 10.75V10.93C256.116 11.03 256.686 11.2 257.226 11.44C257.766 11.68 258.236 12.01 258.636 12.43C259.036 12.85 259.346 13.36 259.566 13.96C259.806 14.56 259.926 15.27 259.926 16.09C259.926 17.17 259.696 18.11 259.236 18.91C258.776 19.69 258.156 20.33 257.376 20.83C256.616 21.33 255.746 21.7 254.766 21.94C253.786 22.18 252.776 22.3 251.736 22.3C251.396 22.3 250.956 22.3 250.416 22.3C249.896 22.3 249.326 22.28 248.706 22.24C248.106 22.22 247.486 22.18 246.846 22.12C246.226 22.06 245.656 21.97 245.136 21.85V1.15C245.516 1.09 245.946 1.03 246.426 0.969999C246.926 0.909999 247.456 0.859999 248.016 0.819999C248.576 0.78 249.146 0.749999 249.726 0.729998C250.326 0.709999 250.916 0.699999 251.496 0.699999C252.476 0.699999 253.426 0.779999 254.346 0.939999C255.286 1.08 256.116 1.34 256.836 1.72C257.576 2.1 258.166 2.63 258.606 3.31C259.046 3.99 259.266 4.85 259.266 5.89ZM251.766 18.91C252.266 18.91 252.746 18.85 253.206 18.73C253.686 18.61 254.106 18.43 254.466 18.19C254.826 17.93 255.116 17.61 255.336 17.23C255.556 16.85 255.666 16.4 255.666 15.88C255.666 15.22 255.536 14.7 255.276 14.32C255.016 13.94 254.676 13.65 254.256 13.45C253.836 13.23 253.366 13.09 252.846 13.03C252.326 12.97 251.806 12.94 251.286 12.94H249.096V18.73C249.196 18.77 249.356 18.8 249.576 18.82C249.796 18.84 250.026 18.86 250.266 18.88C250.526 18.88 250.786 18.89 251.046 18.91C251.326 18.91 251.566 18.91 251.766 18.91ZM250.416 9.82C250.696 9.82 251.016 9.81 251.376 9.79C251.756 9.77 252.066 9.74 252.306 9.7C253.066 9.46 253.716 9.1 254.256 8.62C254.816 8.14 255.096 7.51 255.096 6.73C255.096 6.21 254.996 5.78 254.796 5.44C254.596 5.1 254.326 4.83 253.986 4.63C253.666 4.43 253.296 4.29 252.876 4.21C252.456 4.13 252.016 4.09 251.556 4.09C251.036 4.09 250.556 4.1 250.116 4.12C249.676 4.14 249.336 4.17 249.096 4.21V9.82H250.416ZM273.211 17.35H266.761L265.171 22H261.061L268.621 0.849999H271.651L279.211 22H274.891L273.211 17.35ZM267.811 14.05H272.311L270.751 9.37L270.121 6.07H269.971L269.341 9.4L267.811 14.05ZM291.214 4.66H286.744C286.664 6.56 286.574 8.29 286.474 9.85C286.374 11.41 286.234 12.82 286.054 14.08C285.894 15.32 285.674 16.42 285.394 17.38C285.114 18.34 284.754 19.17 284.314 19.87C284.034 20.33 283.714 20.71 283.354 21.01C283.014 21.31 282.654 21.55 282.274 21.73C281.894 21.91 281.514 22.03 281.134 22.09C280.774 22.17 280.434 22.21 280.114 22.21C279.654 22.21 279.264 22.17 278.944 22.09C278.644 22.03 278.344 21.93 278.044 21.79L278.494 18.25C278.614 18.29 278.734 18.32 278.854 18.34C278.974 18.36 279.094 18.37 279.214 18.37C279.534 18.37 279.844 18.29 280.144 18.13C280.464 17.97 280.734 17.7 280.954 17.32C281.254 16.88 281.514 16.24 281.734 15.4C281.954 14.54 282.144 13.45 282.304 12.13C282.484 10.81 282.624 9.24 282.724 7.42C282.824 5.58 282.894 3.44 282.934 0.999999H295.324V22H291.214V4.66ZM311.165 10.36L311.405 7.63H311.255L309.845 10.45L302.015 22H298.925V0.999999H303.035V12.43L302.735 15.25H302.915L304.385 12.34L312.215 0.999999H315.275V22H311.165V10.36ZM333.125 21.13C332.485 21.59 331.665 21.92 330.665 22.12C329.685 22.32 328.675 22.42 327.635 22.42C326.375 22.42 325.175 22.23 324.035 21.85C322.915 21.45 321.925 20.82 321.065 19.96C320.205 19.08 319.515 17.95 318.995 16.57C318.495 15.17 318.245 13.48 318.245 11.5C318.245 9.44 318.525 7.72 319.085 6.34C319.665 4.94 320.405 3.82 321.305 2.98C322.225 2.12 323.245 1.51 324.365 1.15C325.485 0.769999 326.605 0.579999 327.725 0.579999C328.925 0.579999 329.935 0.659999 330.755 0.819999C331.595 0.979999 332.285 1.17 332.825 1.39L332.015 4.87C331.555 4.65 331.005 4.49 330.365 4.39C329.745 4.29 328.985 4.24 328.085 4.24C326.425 4.24 325.085 4.83 324.065 6.01C323.065 7.19 322.565 9.02 322.565 11.5C322.565 12.58 322.685 13.57 322.925 14.47C323.165 15.35 323.525 16.11 324.005 16.75C324.505 17.37 325.115 17.86 325.835 18.22C326.575 18.56 327.425 18.73 328.385 18.73C329.285 18.73 330.045 18.64 330.665 18.46C331.285 18.28 331.825 18.05 332.285 17.77L333.125 21.13ZM335.663 0.999999H339.773V8.53C339.873 8.51 340.033 8.49 340.253 8.47C340.493 8.43 340.743 8.4 341.003 8.38C341.283 8.36 341.563 8.34 341.843 8.32C342.123 8.3 342.383 8.29 342.623 8.29C343.603 8.29 344.553 8.39 345.473 8.59C346.393 8.79 347.203 9.15 347.903 9.67C348.623 10.17 349.193 10.86 349.613 11.74C350.033 12.6 350.243 13.7 350.243 15.04C350.243 17.44 349.493 19.25 347.993 20.47C346.513 21.69 344.383 22.3 341.603 22.3C341.323 22.3 340.943 22.29 340.463 22.27C340.003 22.27 339.493 22.25 338.933 22.21C338.373 22.17 337.803 22.12 337.223 22.06C336.663 22 336.143 21.91 335.663 21.79V0.999999ZM341.813 18.64C342.373 18.64 342.903 18.59 343.403 18.49C343.903 18.37 344.343 18.18 344.723 17.92C345.103 17.64 345.393 17.28 345.593 16.84C345.813 16.4 345.923 15.86 345.923 15.22C345.923 14.54 345.803 13.99 345.563 13.57C345.343 13.13 345.043 12.79 344.663 12.55C344.303 12.31 343.873 12.15 343.373 12.07C342.873 11.99 342.353 11.95 341.813 11.95C341.673 11.95 341.503 11.96 341.303 11.98C341.103 12 340.903 12.02 340.703 12.04C340.503 12.06 340.313 12.09 340.133 12.13C339.973 12.15 339.853 12.17 339.773 12.19V18.46C339.993 18.52 340.283 18.57 340.643 18.61C341.023 18.63 341.413 18.64 341.813 18.64ZM355.023 15.76C354.923 14.72 354.973 13.84 355.173 13.12C355.373 12.38 355.643 11.75 355.983 11.23C356.343 10.69 356.743 10.23 357.183 9.85C357.643 9.45 358.063 9.07 358.443 8.71C358.843 8.35 359.173 7.98 359.433 7.6C359.693 7.2 359.823 6.73 359.823 6.19C359.823 5.49 359.623 4.93 359.223 4.51C358.843 4.09 358.153 3.88 357.153 3.88C356.833 3.88 356.493 3.92 356.133 4C355.773 4.06 355.413 4.16 355.053 4.3C354.693 4.42 354.343 4.57 354.003 4.75C353.683 4.91 353.393 5.08 353.133 5.26L351.633 2.38C352.393 1.86 353.263 1.43 354.243 1.09C355.243 0.749999 356.443 0.579999 357.843 0.579999C359.723 0.579999 361.193 1.04 362.253 1.96C363.313 2.86 363.843 4.08 363.843 5.62C363.843 6.64 363.703 7.49 363.423 8.17C363.163 8.83 362.833 9.4 362.433 9.88C362.033 10.34 361.593 10.75 361.113 11.11C360.633 11.47 360.193 11.86 359.793 12.28C359.393 12.68 359.053 13.15 358.773 13.69C358.493 14.23 358.353 14.92 358.353 15.76H355.023ZM354.423 20.02C354.423 19.32 354.643 18.77 355.083 18.37C355.523 17.95 356.103 17.74 356.823 17.74C357.583 17.74 358.183 17.95 358.623 18.37C359.063 18.77 359.283 19.32 359.283 20.02C359.283 20.72 359.063 21.28 358.623 21.7C358.183 22.12 357.583 22.33 356.823 22.33C356.103 22.33 355.523 22.12 355.083 21.7C354.643 21.28 354.423 20.72 354.423 20.02Z" fill="black"/>
<path d="M73.947 67.366L74.311 68.612H74.381L74.661 67.324L76.537 62.2H77.727L75.249 68.57C74.997 69.2327 74.773 69.788 74.577 70.236C74.3904 70.6747 74.199 71.034 74.003 71.314C73.807 71.5847 73.597 71.7807 73.373 71.902C73.149 72.014 72.8737 72.07 72.547 72.07C72.239 72.07 71.9917 72.0467 71.805 72C71.6277 71.944 71.4597 71.8647 71.301 71.762L71.651 70.796C71.8377 70.8987 72.0104 70.964 72.169 70.992C72.3277 71.02 72.4724 71.034 72.603 71.034C72.8644 71.034 73.0837 70.9033 73.261 70.642C73.4384 70.3713 73.5924 69.9747 73.723 69.452L70.097 62.2H71.441L73.947 67.366ZM80.7473 67.464H80.0893V72H78.9273V62.2H80.0893V66.764L80.7193 66.568L84.0093 62.2H85.3533L82.0773 66.414L81.4893 66.876L82.2033 67.436L85.7873 72H84.3173L80.7473 67.464ZM92.1342 69.284H88.5222L87.5422 72H86.3942L90.1042 62.046H90.6362L94.3602 72H93.1422L92.1342 69.284ZM88.9002 68.276H91.7842L90.6922 65.294L90.3422 63.81H90.3282L89.9782 65.322L88.9002 68.276ZM99.4837 62.2H100.604V66.764L101.206 66.568L104.048 62.2H105.336L102.508 66.456L101.948 66.904L102.648 67.478L105.77 72H104.342L101.248 67.464H100.604V72H99.4837V67.296L98.8957 67.492L95.8017 72H94.4577L97.5517 67.618L98.2237 67.086L97.5797 66.596L94.6537 62.2H96.0117L98.8537 66.596H99.4837V62.2ZM112.933 65.364L113.017 64.244H112.961L112.359 65.392L107.627 72H106.941V62.2H108.103V68.92L108.005 70.026H108.061L108.677 68.878L113.409 62.2H114.095V72H112.933V65.364ZM122.798 63.236H119.746V72H118.584V63.236H115.532V62.2H122.798V63.236ZM124.236 62.2H129.57V63.236H125.398V66.442H129.22V67.478H125.398V70.964H129.64V72H124.236V62.2ZM141.158 63.236H136.636V72H135.474V62.2H142.32V72H141.158V63.236ZM144.703 62.298C145.057 62.214 145.44 62.158 145.851 62.13C146.261 62.102 146.667 62.088 147.069 62.088C147.498 62.088 147.932 62.13 148.371 62.214C148.819 62.298 149.225 62.452 149.589 62.676C149.953 62.9 150.247 63.208 150.471 63.6C150.704 63.992 150.821 64.4913 150.821 65.098C150.821 65.6953 150.713 66.1993 150.499 66.61C150.284 67.0207 149.999 67.3567 149.645 67.618C149.29 67.87 148.884 68.052 148.427 68.164C147.969 68.276 147.498 68.332 147.013 68.332C146.966 68.332 146.887 68.332 146.775 68.332C146.672 68.332 146.56 68.332 146.439 68.332C146.327 68.3227 146.215 68.3133 146.103 68.304C145.991 68.2947 145.911 68.2853 145.865 68.276V72H144.703V62.298ZM147.097 63.096C146.854 63.096 146.621 63.1007 146.397 63.11C146.173 63.1193 145.995 63.1427 145.865 63.18V67.24C145.911 67.2587 145.986 67.2727 146.089 67.282C146.191 67.282 146.299 67.2867 146.411 67.296C146.523 67.296 146.63 67.296 146.733 67.296C146.835 67.296 146.91 67.296 146.957 67.296C147.274 67.296 147.587 67.268 147.895 67.212C148.212 67.1467 148.497 67.0347 148.749 66.876C149.001 66.7173 149.201 66.4933 149.351 66.204C149.509 65.9147 149.589 65.546 149.589 65.098C149.589 64.7153 149.514 64.398 149.365 64.146C149.225 63.8847 149.033 63.6793 148.791 63.53C148.557 63.3713 148.291 63.2593 147.993 63.194C147.694 63.1287 147.395 63.096 147.097 63.096ZM152.523 62.2H157.857V63.236H153.685V66.442H157.507V67.478H153.685V70.964H157.927V72H152.523V62.2ZM167.813 73.806H167.015L166.805 72H159.931L159.721 73.806H158.909V70.964H159.903C159.978 70.8613 160.09 70.6233 160.239 70.25C160.398 69.8673 160.552 69.326 160.701 68.626C160.86 67.9167 161 67.0347 161.121 65.98C161.242 64.916 161.303 63.656 161.303 62.2H166.539V70.964H167.813V73.806ZM165.377 70.964V63.236H162.395C162.367 64.2627 162.311 65.1867 162.227 66.008C162.152 66.8293 162.059 67.5573 161.947 68.192C161.835 68.8173 161.709 69.3587 161.569 69.816C161.429 70.2733 161.284 70.656 161.135 70.964H165.377ZM175.078 63.236H170.556V72H169.394V62.2H176.24V72H175.078V63.236ZM178.217 67.1C178.217 65.4667 178.562 64.216 179.253 63.348C179.943 62.4707 180.928 62.032 182.207 62.032C182.897 62.032 183.495 62.1533 183.999 62.396C184.503 62.6387 184.918 62.984 185.245 63.432C185.581 63.8707 185.828 64.4027 185.987 65.028C186.145 65.644 186.225 66.3347 186.225 67.1C186.225 68.7333 185.875 69.9887 185.175 70.866C184.484 71.734 183.495 72.168 182.207 72.168C181.525 72.168 180.933 72.0467 180.429 71.804C179.934 71.5613 179.519 71.2207 179.183 70.782C178.856 70.334 178.613 69.802 178.455 69.186C178.296 68.5607 178.217 67.8653 178.217 67.1ZM179.449 67.1C179.449 67.6413 179.5 68.1547 179.603 68.64C179.715 69.1253 179.883 69.5547 180.107 69.928C180.331 70.292 180.615 70.586 180.961 70.81C181.315 71.0247 181.731 71.132 182.207 71.132C183.075 71.132 183.756 70.8053 184.251 70.152C184.745 69.4893 184.993 68.472 184.993 67.1C184.993 66.568 184.937 66.0593 184.825 65.574C184.722 65.0793 184.554 64.65 184.321 64.286C184.097 63.9127 183.807 63.6187 183.453 63.404C183.107 63.18 182.692 63.068 182.207 63.068C181.348 63.068 180.671 63.3993 180.177 64.062C179.691 64.7153 179.449 65.728 179.449 67.1ZM193.278 63.236H190.352C190.258 65.1027 190.132 66.6567 189.974 67.898C189.824 69.13 189.596 70.0913 189.288 70.782C189.082 71.23 188.84 71.5567 188.56 71.762C188.28 71.9673 187.976 72.07 187.65 72.07C187.482 72.07 187.337 72.056 187.216 72.028C187.094 72.0093 186.978 71.9767 186.866 71.93L187.02 70.922C187.113 70.95 187.211 70.964 187.314 70.964C187.472 70.964 187.626 70.9127 187.776 70.81C187.934 70.7073 188.088 70.516 188.238 70.236C188.368 69.984 188.49 69.648 188.602 69.228C188.723 68.808 188.826 68.276 188.91 67.632C189.003 66.988 189.078 66.2227 189.134 65.336C189.19 64.44 189.232 63.3947 189.26 62.2H194.44V72H193.278V63.236ZM201.482 69.284H197.87L196.89 72H195.742L199.452 62.046H199.984L203.708 72H202.49L201.482 69.284ZM198.248 68.276H201.132L200.04 65.294L199.69 63.81H199.676L199.326 65.322L198.248 68.276ZM210.259 63.236H206.171V72H205.009V62.2H210.259V63.236ZM214.908 69.284H211.296L210.316 72H209.168L212.878 62.046H213.41L217.134 72H215.916L214.908 69.284ZM211.674 68.276H214.558L213.466 65.294L213.116 63.81H213.102L212.752 65.322L211.674 68.276ZM218.435 62.2H223.769V63.236H219.597V66.442H223.419V67.478H219.597V70.964H223.839V72H218.435V62.2ZM233.473 65.42L233.613 63.95H233.543L233.011 65.294L230.463 69.718H230.113L227.411 65.28L226.907 63.95H226.837L227.033 65.406V72H225.941V62.2H226.809L229.875 67.212L230.337 68.304H230.365L230.799 67.184L233.725 62.2H234.635V72H233.473V65.42ZM244.239 62.2H245.401V72H244.239V62.2ZM237.015 62.2H238.177V66.008C238.224 65.9987 238.294 65.9893 238.387 65.98C238.481 65.9613 238.583 65.9473 238.695 65.938C238.807 65.9287 238.919 65.9193 239.031 65.91C239.153 65.9007 239.269 65.896 239.381 65.896C239.82 65.896 240.245 65.9427 240.655 66.036C241.075 66.12 241.444 66.274 241.761 66.498C242.079 66.722 242.331 67.0253 242.517 67.408C242.713 67.7813 242.811 68.2573 242.811 68.836C242.811 69.396 242.723 69.886 242.545 70.306C242.368 70.7167 242.116 71.0573 241.789 71.328C241.472 71.5893 241.089 71.7853 240.641 71.916C240.193 72.0467 239.699 72.112 239.157 72.112C239.027 72.112 238.873 72.1073 238.695 72.098C238.527 72.098 238.345 72.0887 238.149 72.07C237.963 72.0607 237.771 72.042 237.575 72.014C237.379 71.986 237.193 71.9487 237.015 71.902V62.2ZM239.255 71.104C239.927 71.104 240.483 70.922 240.921 70.558C241.36 70.194 241.579 69.648 241.579 68.92C241.579 68.528 241.514 68.2013 241.383 67.94C241.253 67.6787 241.075 67.4733 240.851 67.324C240.637 67.1653 240.385 67.058 240.095 67.002C239.815 66.9367 239.517 66.904 239.199 66.904C239.031 66.904 238.845 66.918 238.639 66.946C238.434 66.974 238.28 67.002 238.177 67.03V71.02C238.429 71.076 238.789 71.104 239.255 71.104ZM247.775 62.2H253.109V63.236H248.937V66.442H252.759V67.478H248.937V70.964H253.179V72H247.775V62.2ZM266.414 73.806H265.616L265.406 72H258.532L258.322 73.806H257.51V70.964H258.504C258.579 70.8613 258.691 70.6233 258.84 70.25C258.999 69.8673 259.153 69.326 259.302 68.626C259.461 67.9167 259.601 67.0347 259.722 65.98C259.844 64.916 259.904 63.656 259.904 62.2H265.14V70.964H266.414V73.806ZM263.978 70.964V63.236H260.996C260.968 64.2627 260.912 65.1867 260.828 66.008C260.754 66.8293 260.66 67.5573 260.548 68.192C260.436 68.8173 260.31 69.3587 260.17 69.816C260.03 70.2733 259.886 70.656 259.736 70.964H263.978ZM272.658 69.284H269.046L268.066 72H266.918L270.628 62.046H271.16L274.884 72H273.666L272.658 69.284ZM269.424 68.276H272.308L271.216 65.294L270.866 63.81H270.852L270.502 65.322L269.424 68.276ZM281.57 63.236H278.518V72H277.356V63.236H274.304V62.2H281.57V63.236ZM290.231 62.2H291.393V72H290.231V62.2ZM283.007 62.2H284.169V66.008C284.216 65.9987 284.286 65.9893 284.379 65.98C284.473 65.9613 284.575 65.9473 284.687 65.938C284.799 65.9287 284.911 65.9193 285.023 65.91C285.145 65.9007 285.261 65.896 285.373 65.896C285.812 65.896 286.237 65.9427 286.647 66.036C287.067 66.12 287.436 66.274 287.753 66.498C288.071 66.722 288.323 67.0253 288.509 67.408C288.705 67.7813 288.803 68.2573 288.803 68.836C288.803 69.396 288.715 69.886 288.537 70.306C288.36 70.7167 288.108 71.0573 287.781 71.328C287.464 71.5893 287.081 71.7853 286.633 71.916C286.185 72.0467 285.691 72.112 285.149 72.112C285.019 72.112 284.865 72.1073 284.687 72.098C284.519 72.098 284.337 72.0887 284.141 72.07C283.955 72.0607 283.763 72.042 283.567 72.014C283.371 71.986 283.185 71.9487 283.007 71.902V62.2ZM285.247 71.104C285.919 71.104 286.475 70.922 286.913 70.558C287.352 70.194 287.571 69.648 287.571 68.92C287.571 68.528 287.506 68.2013 287.375 67.94C287.245 67.6787 287.067 67.4733 286.843 67.324C286.629 67.1653 286.377 67.058 286.087 67.002C285.807 66.9367 285.509 66.904 285.191 66.904C285.023 66.904 284.837 66.918 284.631 66.946C284.426 66.974 284.272 67.002 284.169 67.03V71.02C284.421 71.076 284.781 71.104 285.247 71.104ZM303.184 63.236H298.662V72H297.5V62.2H304.346V72H303.184V63.236ZM306.322 67.1C306.322 65.4667 306.667 64.216 307.358 63.348C308.049 62.4707 309.033 62.032 310.312 62.032C311.003 62.032 311.6 62.1533 312.104 62.396C312.608 62.6387 313.023 62.984 313.35 63.432C313.686 63.8707 313.933 64.4027 314.092 65.028C314.251 65.644 314.33 66.3347 314.33 67.1C314.33 68.7333 313.98 69.9887 313.28 70.866C312.589 71.734 311.6 72.168 310.312 72.168C309.631 72.168 309.038 72.0467 308.534 71.804C308.039 71.5613 307.624 71.2207 307.288 70.782C306.961 70.334 306.719 69.802 306.56 69.186C306.401 68.5607 306.322 67.8653 306.322 67.1ZM307.554 67.1C307.554 67.6413 307.605 68.1547 307.708 68.64C307.82 69.1253 307.988 69.5547 308.212 69.928C308.436 70.292 308.721 70.586 309.066 70.81C309.421 71.0247 309.836 71.132 310.312 71.132C311.18 71.132 311.861 70.8053 312.356 70.152C312.851 69.4893 313.098 68.472 313.098 67.1C313.098 66.568 313.042 66.0593 312.93 65.574C312.827 65.0793 312.659 64.65 312.426 64.286C312.202 63.9127 311.913 63.6187 311.558 63.404C311.213 63.18 310.797 63.068 310.312 63.068C309.453 63.068 308.777 63.3993 308.282 64.062C307.797 64.7153 307.554 65.728 307.554 67.1ZM316.298 62.2H321.632V63.236H317.46V66.442H321.282V67.478H317.46V70.964H321.702V72H316.298V62.2ZM324.56 67.366V66.386H324.784C324.868 66.386 324.971 66.386 325.092 66.386C325.214 66.386 325.335 66.3813 325.456 66.372C325.587 66.3627 325.708 66.358 325.82 66.358C325.942 66.3487 326.04 66.3347 326.114 66.316C326.357 66.2787 326.586 66.218 326.8 66.134C327.015 66.0407 327.202 65.924 327.36 65.784C327.519 65.644 327.645 65.4807 327.738 65.294C327.832 65.1073 327.878 64.902 327.878 64.678C327.878 64.37 327.827 64.1133 327.724 63.908C327.622 63.7027 327.477 63.5393 327.29 63.418C327.113 63.2873 326.903 63.1987 326.66 63.152C326.427 63.096 326.175 63.068 325.904 63.068C325.4 63.068 324.971 63.1053 324.616 63.18C324.262 63.2453 323.977 63.3293 323.762 63.432L323.454 62.508C323.641 62.4053 323.977 62.3027 324.462 62.2C324.948 62.088 325.494 62.032 326.1 62.032C326.474 62.032 326.838 62.074 327.192 62.158C327.556 62.2327 327.878 62.3633 328.158 62.55C328.448 62.7273 328.676 62.9747 328.844 63.292C329.022 63.6 329.11 63.9827 329.11 64.44C329.11 64.9067 328.956 65.3547 328.648 65.784C328.34 66.204 327.878 66.5073 327.262 66.694V66.75C327.925 66.8433 328.448 67.0907 328.83 67.492C329.213 67.8933 329.404 68.43 329.404 69.102C329.404 69.634 329.297 70.096 329.082 70.488C328.877 70.8707 328.602 71.188 328.256 71.44C327.92 71.692 327.528 71.8787 327.08 72C326.642 72.112 326.194 72.168 325.736 72.168C325.12 72.168 324.612 72.1307 324.21 72.056C323.818 71.9907 323.492 71.9067 323.23 71.804L323.524 70.754C323.739 70.8567 324.038 70.9453 324.42 71.02C324.812 71.0947 325.284 71.132 325.834 71.132C326.124 71.132 326.408 71.0947 326.688 71.02C326.968 70.936 327.216 70.8147 327.43 70.656C327.654 70.488 327.832 70.2827 327.962 70.04C328.102 69.7973 328.172 69.508 328.172 69.172C328.172 68.584 327.967 68.1547 327.556 67.884C327.146 67.604 326.609 67.4407 325.946 67.394C325.834 67.3847 325.727 67.38 325.624 67.38C325.531 67.3707 325.433 67.366 325.33 67.366H324.56ZM339.162 73.806H338.364L338.154 72H331.28L331.07 73.806H330.258V70.964H331.252C331.327 70.8613 331.439 70.6233 331.588 70.25C331.747 69.8673 331.901 69.326 332.05 68.626C332.209 67.9167 332.349 67.0347 332.47 65.98C332.592 64.916 332.652 63.656 332.652 62.2H337.888V70.964H339.162V73.806ZM336.726 70.964V63.236H333.744C333.716 64.2627 333.66 65.1867 333.576 66.008C333.502 66.8293 333.408 67.5573 333.296 68.192C333.184 68.8173 333.058 69.3587 332.918 69.816C332.778 70.2733 332.634 70.656 332.484 70.964H336.726ZM342.564 67.464H341.906V72H340.744V62.2H341.906V66.764L342.536 66.568L345.826 62.2H347.17L343.894 66.414L343.306 66.876L344.02 67.436L347.604 72H346.134L342.564 67.464ZM355.281 65.364L355.365 64.244H355.309L354.707 65.392L349.975 72H349.289V62.2H350.451V68.92L350.353 70.026H350.409L351.025 68.878L355.757 62.2H356.443V72H355.281V65.364ZM358.314 71.398C358.314 71.174 358.389 70.992 358.538 70.852C358.687 70.712 358.879 70.642 359.112 70.642C359.401 70.642 359.635 70.7447 359.812 70.95C359.999 71.1553 360.092 71.454 360.092 71.846C360.092 72.182 360.045 72.476 359.952 72.728C359.859 72.98 359.737 73.1947 359.588 73.372C359.439 73.5587 359.275 73.708 359.098 73.82C358.921 73.9413 358.743 74.03 358.566 74.086L358.216 73.54C358.552 73.4093 358.799 73.204 358.958 72.924C359.126 72.6533 359.21 72.378 359.21 72.098C359.126 72.126 359.047 72.14 358.972 72.14C358.785 72.14 358.627 72.0793 358.496 71.958C358.375 71.8273 358.314 71.6407 358.314 71.398ZM6.66149 90.364L6.74549 89.244H6.68949L6.08749 90.392L1.35549 97H0.669492V87.2H1.83149V93.92L1.73349 95.026H1.78949L2.40549 93.878L7.13749 87.2H7.82349V97H6.66149V90.364ZM21.4632 90.42L21.6032 88.95H21.5332L21.0012 90.294L18.4532 94.718H18.1032L15.4012 90.28L14.8972 88.95H14.8272L15.0232 90.406V97H13.9312V87.2H14.7992L17.8652 92.212L18.3272 93.304H18.3552L18.7892 92.184L21.7152 87.2H22.6252V97H21.4632V90.42ZM32.2294 87.2H33.3914V97H32.2294V87.2ZM25.0054 87.2H26.1674V91.008C26.2141 90.9987 26.2841 90.9893 26.3774 90.98C26.4708 90.9613 26.5734 90.9473 26.6854 90.938C26.7974 90.9287 26.9094 90.9193 27.0214 90.91C27.1428 90.9007 27.2594 90.896 27.3714 90.896C27.8101 90.896 28.2348 90.9427 28.6454 91.036C29.0654 91.12 29.4341 91.274 29.7514 91.498C30.0688 91.722 30.3208 92.0253 30.5074 92.408C30.7034 92.7813 30.8014 93.2573 30.8014 93.836C30.8014 94.396 30.7128 94.886 30.5354 95.306C30.3581 95.7167 30.1061 96.0573 29.7794 96.328C29.4621 96.5893 29.0794 96.7853 28.6314 96.916C28.1834 97.0467 27.6888 97.112 27.1474 97.112C27.0168 97.112 26.8628 97.1073 26.6854 97.098C26.5174 97.098 26.3354 97.0887 26.1394 97.07C25.9528 97.0607 25.7614 97.042 25.5654 97.014C25.3694 96.986 25.1828 96.9487 25.0054 96.902V87.2ZM27.2454 96.104C27.9174 96.104 28.4728 95.922 28.9114 95.558C29.3501 95.194 29.5694 94.648 29.5694 93.92C29.5694 93.528 29.5041 93.2013 29.3734 92.94C29.2428 92.6787 29.0654 92.4733 28.8414 92.324C28.6268 92.1653 28.3748 92.058 28.0854 92.002C27.8054 91.9367 27.5068 91.904 27.1894 91.904C27.0214 91.904 26.8348 91.918 26.6294 91.946C26.4241 91.974 26.2701 92.002 26.1674 92.03V96.02C26.4194 96.076 26.7788 96.104 27.2454 96.104ZM45.1816 88.236H40.6596V97H39.4976V87.2H46.3436V97H45.1816V88.236ZM48.3201 92.1C48.3201 90.4667 48.6655 89.216 49.3561 88.348C50.0468 87.4707 51.0315 87.032 52.3101 87.032C53.0008 87.032 53.5981 87.1533 54.1021 87.396C54.6061 87.6387 55.0215 87.984 55.3481 88.432C55.6841 88.8707 55.9315 89.4027 56.0901 90.028C56.2488 90.644 56.3281 91.3347 56.3281 92.1C56.3281 93.7333 55.9781 94.9887 55.2781 95.866C54.5875 96.734 53.5981 97.168 52.3101 97.168C51.6288 97.168 51.0361 97.0467 50.5321 96.804C50.0375 96.5613 49.6221 96.2207 49.2861 95.782C48.9595 95.334 48.7168 94.802 48.5581 94.186C48.3995 93.5607 48.3201 92.8653 48.3201 92.1ZM49.5521 92.1C49.5521 92.6413 49.6035 93.1547 49.7061 93.64C49.8181 94.1253 49.9861 94.5547 50.2101 94.928C50.4341 95.292 50.7188 95.586 51.0641 95.81C51.4188 96.0247 51.8341 96.132 52.3101 96.132C53.1781 96.132 53.8595 95.8053 54.3541 95.152C54.8488 94.4893 55.0961 93.472 55.0961 92.1C55.0961 91.568 55.0401 91.0593 54.9281 90.574C54.8255 90.0793 54.6575 89.65 54.4241 89.286C54.2001 88.9127 53.9108 88.6187 53.5561 88.404C53.2108 88.18 52.7955 88.068 52.3101 88.068C51.4515 88.068 50.7748 88.3993 50.2801 89.062C49.7948 89.7153 49.5521 90.728 49.5521 92.1ZM60.1164 92.464H59.4584V97H58.2964V87.2H59.4584V91.764L60.0884 91.568L63.3784 87.2H64.7224L61.4464 91.414L60.8584 91.876L61.5724 92.436L65.1564 97H63.6864L60.1164 92.464ZM71.5034 94.284H67.8914L66.9114 97H65.7634L69.4734 87.046H70.0054L73.7294 97H72.5114L71.5034 94.284ZM68.2694 93.276H71.1534L70.0614 90.294L69.7114 88.81H69.6974L69.3474 90.322L68.2694 93.276ZM78.8528 87.2H79.9728V91.764L80.5748 91.568L83.4168 87.2H84.7048L81.8768 91.456L81.3168 91.904L82.0168 92.478L85.1388 97H83.7108L80.6168 92.464H79.9728V97H78.8528V92.296L78.2648 92.492L75.1708 97H73.8268L76.9208 92.618L77.5928 92.086L76.9488 91.596L74.0228 87.2H75.3808L78.2228 91.596H78.8528V87.2ZM86.3101 87.2H91.6441V88.236H87.4721V91.442H91.2941V92.478H87.4721V95.964H91.7141V97H86.3101V87.2ZM101.348 90.42L101.488 88.95H101.418L100.886 90.294L98.338 94.718H97.988L95.286 90.28L94.782 88.95H94.712L94.908 90.406V97H93.816V87.2H94.684L97.75 92.212L98.212 93.304H98.24L98.674 92.184L101.6 87.2H102.51V97H101.348V90.42ZM114.531 89.44C114.531 89.6733 114.493 89.9113 114.419 90.154C114.344 90.3967 114.232 90.6253 114.083 90.84C113.933 91.0453 113.742 91.2273 113.509 91.386C113.275 91.5447 113 91.666 112.683 91.75V91.806C112.963 91.8527 113.229 91.932 113.481 92.044C113.742 92.156 113.971 92.31 114.167 92.506C114.363 92.702 114.521 92.94 114.643 93.22C114.764 93.5 114.825 93.8313 114.825 94.214C114.825 94.718 114.717 95.1567 114.503 95.53C114.297 95.894 114.022 96.1927 113.677 96.426C113.341 96.6593 112.953 96.832 112.515 96.944C112.076 97.056 111.628 97.112 111.171 97.112C111.012 97.112 110.825 97.112 110.611 97.112C110.396 97.112 110.172 97.1027 109.939 97.084C109.705 97.0747 109.472 97.056 109.239 97.028C109.005 97.0093 108.8 96.9767 108.623 96.93V87.284C108.968 87.228 109.369 87.1813 109.827 87.144C110.284 87.1067 110.783 87.088 111.325 87.088C111.689 87.088 112.057 87.1207 112.431 87.186C112.813 87.242 113.159 87.3587 113.467 87.536C113.775 87.704 114.027 87.942 114.223 88.25C114.428 88.558 114.531 88.9547 114.531 89.44ZM111.283 96.104C111.581 96.104 111.871 96.0713 112.151 96.006C112.431 95.9313 112.678 95.8193 112.893 95.67C113.107 95.5113 113.275 95.32 113.397 95.096C113.527 94.872 113.593 94.606 113.593 94.298C113.593 93.9153 113.513 93.6073 113.355 93.374C113.205 93.1407 113.005 92.9587 112.753 92.828C112.51 92.6973 112.235 92.6087 111.927 92.562C111.619 92.5153 111.311 92.492 111.003 92.492H109.785V96.006C109.85 96.0247 109.943 96.0387 110.065 96.048C110.186 96.0573 110.317 96.0667 110.457 96.076C110.597 96.0853 110.741 96.0947 110.891 96.104C111.04 96.104 111.171 96.104 111.283 96.104ZM110.513 91.512C110.671 91.512 110.863 91.5073 111.087 91.498C111.311 91.4887 111.497 91.4747 111.647 91.456C111.871 91.3813 112.081 91.2927 112.277 91.19C112.473 91.078 112.645 90.952 112.795 90.812C112.953 90.6627 113.075 90.4947 113.159 90.308C113.252 90.112 113.299 89.902 113.299 89.678C113.299 89.37 113.238 89.118 113.117 88.922C113.005 88.7167 112.851 88.5533 112.655 88.432C112.459 88.3107 112.235 88.2267 111.983 88.18C111.731 88.124 111.474 88.096 111.213 88.096C110.905 88.096 110.62 88.1053 110.359 88.124C110.107 88.1333 109.915 88.152 109.785 88.18V91.512H110.513ZM121.46 94.284H117.848L116.868 97H115.72L119.43 87.046H119.962L123.686 97H122.468L121.46 94.284ZM118.226 93.276H121.11L120.018 90.294L119.668 88.81H119.654L119.304 90.322L118.226 93.276ZM132.52 90.42L132.66 88.95H132.59L132.058 90.294L129.51 94.718H129.16L126.458 90.28L125.954 88.95H125.884L126.08 90.406V97H124.988V87.2H125.856L128.922 92.212L129.384 93.304H129.412L129.846 92.184L132.772 87.2H133.682V97H132.52V90.42ZM144.852 88.236H141.926C141.832 90.1027 141.706 91.6567 141.548 92.898C141.398 94.13 141.17 95.0913 140.862 95.782C140.656 96.23 140.414 96.5567 140.134 96.762C139.854 96.9673 139.55 97.07 139.224 97.07C139.056 97.07 138.911 97.056 138.79 97.028C138.668 97.0093 138.552 96.9767 138.44 96.93L138.594 95.922C138.687 95.95 138.785 95.964 138.888 95.964C139.046 95.964 139.2 95.9127 139.35 95.81C139.508 95.7073 139.662 95.516 139.812 95.236C139.942 94.984 140.064 94.648 140.176 94.228C140.297 93.808 140.4 93.276 140.484 92.632C140.577 91.988 140.652 91.2227 140.708 90.336C140.764 89.44 140.806 88.3947 140.834 87.2H146.014V97H144.852V88.236ZM151.152 92.366L151.516 93.612H151.586L151.866 92.324L153.742 87.2H154.932L152.454 93.57C152.202 94.2327 151.978 94.788 151.782 95.236C151.595 95.6747 151.404 96.034 151.208 96.314C151.012 96.5847 150.802 96.7807 150.578 96.902C150.354 97.014 150.079 97.07 149.752 97.07C149.444 97.07 149.197 97.0467 149.01 97C148.833 96.944 148.665 96.8647 148.506 96.762L148.856 95.796C149.043 95.8987 149.215 95.964 149.374 95.992C149.533 96.02 149.677 96.034 149.808 96.034C150.069 96.034 150.289 95.9033 150.466 95.642C150.643 95.3713 150.797 94.9747 150.928 94.452L147.302 87.2H148.646L151.152 92.366ZM157.154 87.2V90.448C157.154 91.7267 157.733 92.366 158.89 92.366C159.329 92.366 159.74 92.31 160.122 92.198C160.505 92.0767 160.818 91.918 161.06 91.722V87.2H162.222V97H161.06V92.772C160.808 92.912 160.477 93.052 160.066 93.192C159.656 93.332 159.184 93.402 158.652 93.402C158.26 93.402 157.901 93.36 157.574 93.276C157.248 93.1827 156.968 93.0333 156.734 92.828C156.501 92.6133 156.319 92.3287 156.188 91.974C156.058 91.6193 155.992 91.1807 155.992 90.658V87.2H157.154ZM164.609 97V87.2H165.771V95.964H168.977V87.2H170.139V95.964H173.345V87.2H174.507V97H164.609ZM182.878 90.364L182.962 89.244H182.906L182.304 90.392L177.572 97H176.886V87.2H178.048V93.92L177.95 95.026H178.006L178.622 93.878L183.354 87.2H184.04V97H182.878V90.364ZM186.416 87.2H191.75V88.236H187.578V91.442H191.4V92.478H187.578V95.964H191.82V97H186.416V87.2ZM203.338 88.236H198.816V97H197.654V87.2H204.5V97H203.338V88.236ZM206.882 87.298C207.237 87.214 207.62 87.158 208.03 87.13C208.441 87.102 208.847 87.088 209.248 87.088C209.678 87.088 210.112 87.13 210.55 87.214C210.998 87.298 211.404 87.452 211.768 87.676C212.132 87.9 212.426 88.208 212.65 88.6C212.884 88.992 213 89.4913 213 90.098C213 90.6953 212.893 91.1993 212.678 91.61C212.464 92.0207 212.179 92.3567 211.824 92.618C211.47 92.87 211.064 93.052 210.606 93.164C210.149 93.276 209.678 93.332 209.192 93.332C209.146 93.332 209.066 93.332 208.954 93.332C208.852 93.332 208.74 93.332 208.618 93.332C208.506 93.3227 208.394 93.3133 208.282 93.304C208.17 93.2947 208.091 93.2853 208.044 93.276V97H206.882V87.298ZM209.276 88.096C209.034 88.096 208.8 88.1007 208.576 88.11C208.352 88.1193 208.175 88.1427 208.044 88.18V92.24C208.091 92.2587 208.166 92.2727 208.268 92.282C208.371 92.282 208.478 92.2867 208.59 92.296C208.702 92.296 208.81 92.296 208.912 92.296C209.015 92.296 209.09 92.296 209.136 92.296C209.454 92.296 209.766 92.268 210.074 92.212C210.392 92.1467 210.676 92.0347 210.928 91.876C211.18 91.7173 211.381 91.4933 211.53 91.204C211.689 90.9147 211.768 90.546 211.768 90.098C211.768 89.7153 211.694 89.398 211.544 89.146C211.404 88.8847 211.213 88.6793 210.97 88.53C210.737 88.3713 210.471 88.2593 210.172 88.194C209.874 88.1287 209.575 88.096 209.276 88.096ZM214.703 87.2H220.037V88.236H215.865V91.442H219.687V92.478H215.865V95.964H220.107V97H214.703V87.2ZM229.993 98.806H229.195L228.985 97H222.111L221.901 98.806H221.089V95.964H222.083C222.157 95.8613 222.269 95.6233 222.419 95.25C222.577 94.8673 222.731 94.326 222.881 93.626C223.039 92.9167 223.179 92.0347 223.301 90.98C223.422 89.916 223.483 88.656 223.483 87.2H228.719V95.964H229.993V98.806ZM227.557 95.964V88.236H224.575C224.547 89.2627 224.491 90.1867 224.407 91.008C224.332 91.8293 224.239 92.5573 224.127 93.192C224.015 93.8173 223.889 94.3587 223.749 94.816C223.609 95.2733 223.464 95.656 223.315 95.964H227.557ZM236.768 88.236H233.842C233.748 90.1027 233.622 91.6567 233.464 92.898C233.314 94.13 233.086 95.0913 232.778 95.782C232.572 96.23 232.33 96.5567 232.05 96.762C231.77 96.9673 231.466 97.07 231.14 97.07C230.972 97.07 230.827 97.056 230.706 97.028C230.584 97.0093 230.468 96.9767 230.356 96.93L230.51 95.922C230.603 95.95 230.701 95.964 230.804 95.964C230.962 95.964 231.116 95.9127 231.266 95.81C231.424 95.7073 231.578 95.516 231.728 95.236C231.858 94.984 231.98 94.648 232.092 94.228C232.213 93.808 232.316 93.276 232.4 92.632C232.493 91.988 232.568 91.2227 232.624 90.336C232.68 89.44 232.722 88.3947 232.75 87.2H237.93V97H236.768V88.236ZM239.904 92.1C239.904 90.4667 240.249 89.216 240.94 88.348C241.631 87.4707 242.615 87.032 243.894 87.032C244.585 87.032 245.182 87.1533 245.686 87.396C246.19 87.6387 246.605 87.984 246.932 88.432C247.268 88.8707 247.515 89.4027 247.674 90.028C247.833 90.644 247.912 91.3347 247.912 92.1C247.912 93.7333 247.562 94.9887 246.862 95.866C246.171 96.734 245.182 97.168 243.894 97.168C243.213 97.168 242.62 97.0467 242.116 96.804C241.621 96.5613 241.206 96.2207 240.87 95.782C240.543 95.334 240.301 94.802 240.142 94.186C239.983 93.5607 239.904 92.8653 239.904 92.1ZM241.136 92.1C241.136 92.6413 241.187 93.1547 241.29 93.64C241.402 94.1253 241.57 94.5547 241.794 94.928C242.018 95.292 242.303 95.586 242.648 95.81C243.003 96.0247 243.418 96.132 243.894 96.132C244.762 96.132 245.443 95.8053 245.938 95.152C246.433 94.4893 246.68 93.472 246.68 92.1C246.68 91.568 246.624 91.0593 246.512 90.574C246.409 90.0793 246.241 89.65 246.008 89.286C245.784 88.9127 245.495 88.6187 245.14 88.404C244.795 88.18 244.379 88.068 243.894 88.068C243.035 88.068 242.359 88.3993 241.864 89.062C241.379 89.7153 241.136 90.728 241.136 92.1ZM253.566 87.2H254.686V91.764L255.288 91.568L258.13 87.2H259.418L256.59 91.456L256.03 91.904L256.73 92.478L259.852 97H258.424L255.33 92.464H254.686V97H253.566V92.296L252.978 92.492L249.884 97H248.54L251.634 92.618L252.306 92.086L251.662 91.596L248.736 87.2H250.094L252.936 91.596H253.566V87.2ZM261.023 87.2H266.357V88.236H262.185V91.442H266.007V92.478H262.185V95.964H266.427V97H261.023V87.2ZM274.395 92.506H269.691V97H268.529V87.2H269.691V91.47H274.395V87.2H275.557V97H274.395V92.506ZM283.927 90.364L284.011 89.244H283.955L283.353 90.392L278.621 97H277.935V87.2H279.097V93.92L278.999 95.026H279.055L279.671 93.878L284.403 87.2H285.089V97H283.927V90.364ZM293.05 97H291.888V92.73L290.446 93.038L288.01 97H286.638L288.822 93.514L289.676 92.912C289.34 92.8373 289.028 92.7253 288.738 92.576C288.458 92.4173 288.211 92.2213 287.996 91.988C287.791 91.7453 287.628 91.4653 287.506 91.148C287.394 90.8307 287.338 90.4667 287.338 90.056C287.338 89.4867 287.432 89.0153 287.618 88.642C287.814 88.2593 288.076 87.956 288.402 87.732C288.738 87.4987 289.126 87.3353 289.564 87.242C290.012 87.1393 290.484 87.088 290.978 87.088C291.296 87.088 291.632 87.102 291.986 87.13C292.35 87.158 292.705 87.214 293.05 87.298V97ZM290.922 88.096C290.614 88.096 290.32 88.1287 290.04 88.194C289.76 88.25 289.508 88.3527 289.284 88.502C289.07 88.6513 288.897 88.852 288.766 89.104C288.636 89.356 288.57 89.6733 288.57 90.056C288.57 90.4107 288.631 90.714 288.752 90.966C288.883 91.218 289.056 91.428 289.27 91.596C289.485 91.7547 289.732 91.8713 290.012 91.946C290.302 92.0207 290.61 92.058 290.936 92.058H291.888V88.18C291.758 88.152 291.622 88.1333 291.482 88.124C291.342 88.1053 291.156 88.096 290.922 88.096ZM304.418 88.236H300.33V97H299.168V87.2H304.418V88.236ZM304.627 92.1C304.627 90.4667 304.972 89.216 305.663 88.348C306.353 87.4707 307.338 87.032 308.617 87.032C309.307 87.032 309.905 87.1533 310.409 87.396C310.913 87.6387 311.328 87.984 311.655 88.432C311.991 88.8707 312.238 89.4027 312.397 90.028C312.555 90.644 312.635 91.3347 312.635 92.1C312.635 93.7333 312.285 94.9887 311.585 95.866C310.894 96.734 309.905 97.168 308.617 97.168C307.935 97.168 307.343 97.0467 306.839 96.804C306.344 96.5613 305.929 96.2207 305.593 95.782C305.266 95.334 305.023 94.802 304.865 94.186C304.706 93.5607 304.627 92.8653 304.627 92.1ZM305.859 92.1C305.859 92.6413 305.91 93.1547 306.013 93.64C306.125 94.1253 306.293 94.5547 306.517 94.928C306.741 95.292 307.025 95.586 307.371 95.81C307.725 96.0247 308.141 96.132 308.617 96.132C309.485 96.132 310.166 95.8053 310.661 95.152C311.155 94.4893 311.403 93.472 311.403 92.1C311.403 91.568 311.347 91.0593 311.235 90.574C311.132 90.0793 310.964 89.65 310.731 89.286C310.507 88.9127 310.217 88.6187 309.863 88.404C309.517 88.18 309.102 88.068 308.617 88.068C307.758 88.068 307.081 88.3993 306.587 89.062C306.101 89.7153 305.859 90.728 305.859 92.1ZM320.875 96.594C320.595 96.8087 320.24 96.958 319.811 97.042C319.382 97.126 318.924 97.168 318.439 97.168C317.851 97.168 317.3 97.07 316.787 96.874C316.274 96.6687 315.826 96.3607 315.443 95.95C315.06 95.5393 314.757 95.0167 314.533 94.382C314.309 93.738 314.197 92.9773 314.197 92.1C314.197 91.1853 314.318 90.4107 314.561 89.776C314.813 89.132 315.14 88.6093 315.541 88.208C315.952 87.7973 316.409 87.4987 316.913 87.312C317.417 87.1253 317.93 87.032 318.453 87.032C319.013 87.032 319.47 87.0647 319.825 87.13C320.18 87.186 320.483 87.2653 320.735 87.368L320.455 88.39C320.007 88.1753 319.368 88.068 318.537 88.068C318.154 88.068 317.776 88.138 317.403 88.278C317.03 88.418 316.694 88.6467 316.395 88.964C316.106 89.2813 315.872 89.6967 315.695 90.21C315.518 90.7233 315.429 91.3533 315.429 92.1C315.429 92.772 315.513 93.36 315.681 93.864C315.849 94.368 316.078 94.788 316.367 95.124C316.666 95.46 317.011 95.712 317.403 95.88C317.804 96.048 318.238 96.132 318.705 96.132C319.125 96.132 319.489 96.09 319.797 96.006C320.114 95.922 320.38 95.8147 320.595 95.684L320.875 96.594ZM328.533 88.236H325.481V97H324.319V88.236H321.267V87.2H328.533V88.236ZM335.962 90.364L336.046 89.244H335.99L335.388 90.392L330.656 97H329.97V87.2H331.132V93.92L331.034 95.026H331.09L331.706 93.878L336.438 87.2H337.124V97H335.962V90.364ZM345.366 92.506H340.662V97H339.5V87.2H340.662V91.47H345.366V87.2H346.528V97H345.366V92.506ZM354.898 90.364L354.982 89.244H354.926L354.324 90.392L349.592 97H348.906V87.2H350.068V93.92L349.97 95.026H350.026L350.642 93.878L355.374 87.2H356.06V97H354.898V90.364ZM366.471 98.806H365.673L365.463 97H358.435V87.2H359.597V95.964H364.007V87.2H365.169V95.964H366.471V98.806ZM377.687 89.44C377.687 89.6733 377.65 89.9113 377.575 90.154C377.5 90.3967 377.388 90.6253 377.239 90.84C377.09 91.0453 376.898 91.2273 376.665 91.386C376.432 91.5447 376.156 91.666 375.839 91.75V91.806C376.119 91.8527 376.385 91.932 376.637 92.044C376.898 92.156 377.127 92.31 377.323 92.506C377.519 92.702 377.678 92.94 377.799 93.22C377.92 93.5 377.981 93.8313 377.981 94.214C377.981 94.718 377.874 95.1567 377.659 95.53C377.454 95.894 377.178 96.1927 376.833 96.426C376.497 96.6593 376.11 96.832 375.671 96.944C375.232 97.056 374.784 97.112 374.327 97.112C374.168 97.112 373.982 97.112 373.767 97.112C373.552 97.112 373.328 97.1027 373.095 97.084C372.862 97.0747 372.628 97.056 372.395 97.028C372.162 97.0093 371.956 96.9767 371.779 96.93V87.284C372.124 87.228 372.526 87.1813 372.983 87.144C373.44 87.1067 373.94 87.088 374.481 87.088C374.845 87.088 375.214 87.1207 375.587 87.186C375.97 87.242 376.315 87.3587 376.623 87.536C376.931 87.704 377.183 87.942 377.379 88.25C377.584 88.558 377.687 88.9547 377.687 89.44ZM374.439 96.104C374.738 96.104 375.027 96.0713 375.307 96.006C375.587 95.9313 375.834 95.8193 376.049 95.67C376.264 95.5113 376.432 95.32 376.553 95.096C376.684 94.872 376.749 94.606 376.749 94.298C376.749 93.9153 376.67 93.6073 376.511 93.374C376.362 93.1407 376.161 92.9587 375.909 92.828C375.666 92.6973 375.391 92.6087 375.083 92.562C374.775 92.5153 374.467 92.492 374.159 92.492H372.941V96.006C373.006 96.0247 373.1 96.0387 373.221 96.048C373.342 96.0573 373.473 96.0667 373.613 96.076C373.753 96.0853 373.898 96.0947 374.047 96.104C374.196 96.104 374.327 96.104 374.439 96.104ZM373.669 91.512C373.828 91.512 374.019 91.5073 374.243 91.498C374.467 91.4887 374.654 91.4747 374.803 91.456C375.027 91.3813 375.237 91.2927 375.433 91.19C375.629 91.078 375.802 90.952 375.951 90.812C376.11 90.6627 376.231 90.4947 376.315 90.308C376.408 90.112 376.455 89.902 376.455 89.678C376.455 89.37 376.394 89.118 376.273 88.922C376.161 88.7167 376.007 88.5533 375.811 88.432C375.615 88.3107 375.391 88.2267 375.139 88.18C374.887 88.124 374.63 88.096 374.369 88.096C374.061 88.096 373.776 88.1053 373.515 88.124C373.263 88.1333 373.072 88.152 372.941 88.18V91.512H373.669ZM389.959 96.594C389.679 96.8087 389.324 96.958 388.895 97.042C388.466 97.126 388.008 97.168 387.523 97.168C386.935 97.168 386.384 97.07 385.871 96.874C385.358 96.6687 384.91 96.3607 384.527 95.95C384.144 95.5393 383.841 95.0167 383.617 94.382C383.393 93.738 383.281 92.9773 383.281 92.1C383.281 91.1853 383.402 90.4107 383.645 89.776C383.897 89.132 384.224 88.6093 384.625 88.208C385.036 87.7973 385.493 87.4987 385.997 87.312C386.501 87.1253 387.014 87.032 387.537 87.032C388.097 87.032 388.554 87.0647 388.909 87.13C389.264 87.186 389.567 87.2653 389.819 87.368L389.539 88.39C389.091 88.1753 388.452 88.068 387.621 88.068C387.238 88.068 386.86 88.138 386.487 88.278C386.114 88.418 385.778 88.6467 385.479 88.964C385.19 89.2813 384.956 89.6967 384.779 90.21C384.602 90.7233 384.513 91.3533 384.513 92.1C384.513 92.772 384.597 93.36 384.765 93.864C384.933 94.368 385.162 94.788 385.451 95.124C385.75 95.46 386.095 95.712 386.487 95.88C386.888 96.048 387.322 96.132 387.789 96.132C388.209 96.132 388.573 96.09 388.881 96.006C389.198 95.922 389.464 95.8147 389.679 95.684L389.959 96.594ZM391.685 87.2H397.019V88.236H392.847V91.442H396.669V92.478H392.847V95.964H397.089V97H391.685V87.2ZM406.975 98.806H406.177L405.967 97H399.093L398.883 98.806H398.071V95.964H399.065C399.14 95.8613 399.252 95.6233 399.401 95.25C399.56 94.8673 399.714 94.326 399.863 93.626C400.022 92.9167 400.162 92.0347 400.283 90.98C400.404 89.916 400.465 88.656 400.465 87.2H405.701V95.964H406.975V98.806ZM404.539 95.964V88.236H401.557C401.529 89.2627 401.473 90.1867 401.389 91.008C401.314 91.8293 401.221 92.5573 401.109 93.192C400.997 93.8173 400.871 94.3587 400.731 94.816C400.591 95.2733 400.446 95.656 400.297 95.964H404.539ZM407.822 92.1C407.822 90.4667 408.167 89.216 408.858 88.348C409.549 87.4707 410.533 87.032 411.812 87.032C412.503 87.032 413.1 87.1533 413.604 87.396C414.108 87.6387 414.523 87.984 414.85 88.432C415.186 88.8707 415.433 89.4027 415.592 90.028C415.751 90.644 415.83 91.3347 415.83 92.1C415.83 93.7333 415.48 94.9887 414.78 95.866C414.089 96.734 413.1 97.168 411.812 97.168C411.131 97.168 410.538 97.0467 410.034 96.804C409.539 96.5613 409.124 96.2207 408.788 95.782C408.461 95.334 408.219 94.802 408.06 94.186C407.901 93.5607 407.822 92.8653 407.822 92.1ZM409.054 92.1C409.054 92.6413 409.105 93.1547 409.208 93.64C409.32 94.1253 409.488 94.5547 409.712 94.928C409.936 95.292 410.221 95.586 410.566 95.81C410.921 96.0247 411.336 96.132 411.812 96.132C412.68 96.132 413.361 95.8053 413.856 95.152C414.351 94.4893 414.598 93.472 414.598 92.1C414.598 91.568 414.542 91.0593 414.43 90.574C414.327 90.0793 414.159 89.65 413.926 89.286C413.702 88.9127 413.413 88.6187 413.058 88.404C412.713 88.18 412.297 88.068 411.812 88.068C410.953 88.068 410.277 88.3993 409.782 89.062C409.297 89.7153 409.054 90.728 409.054 92.1ZM423.664 92.506H418.96V97H417.798V87.2H418.96V91.47H423.664V87.2H424.826V97H423.664V92.506ZM427.205 87.2H432.539V88.236H428.367V91.442H432.189V92.478H428.367V95.964H432.609V97H427.205V87.2Z" fill="#333333"/>
</svg>
